<svg width="44" height="45" viewBox="0 0 44 45" fill="none" xmlns="http://www.w3.org/2000/svg">
<rect y="35" width="10" height="10" fill="white"/>
<rect x="10" y="35" width="10" height="10" fill="white"/>
<rect x="20" y="35" width="10" height="10" fill="white"/>
<rect x="29" y="35" width="10" height="10" fill="white"/>
<rect x="26" y="30" width="10" height="10" fill="#FF0000"/>
<rect x="23" y="30" width="10" height="10" fill="#FF0000"/>
<rect x="7" y="24" width="10" height="10" fill="#FF0000"/>
<rect x="12" y="18" width="10" height="10" fill="#FF0000"/>
<rect x="21" y="14" width="10" height="10" fill="#FF0000"/>
<rect x="28" y="7" width="10" height="10" fill="#FF0000"/>
<rect x="25" y="15" width="10" height="10" fill="#FF0000"/>
<rect x="24" y="22" width="10" height="10" fill="#FF0000"/>
<rect x="15" y="22" width="10" height="10" fill="#FF0000"/>
<rect x="34" width="10" height="10" fill="white"/>
<rect x="14" y="30" width="10" height="10" fill="#FF0000"/>
<rect x="4" y="30" width="10" height="10" fill="#FF0000"/>
</svg>
