<svg width="47" height="48" viewBox="0 0 47 48" fill="none" xmlns="http://www.w3.org/2000/svg">
<rect x="1.5" y="36.5" width="10" height="10" fill="white"/>
<rect x="11.5" y="36.5" width="10" height="10" fill="white"/>
<rect x="21.5" y="36.5" width="10" height="10" fill="white"/>
<rect x="30.5" y="36.5" width="10" height="10" fill="white"/>
<rect x="27.5" y="31.5" width="10" height="10" fill="#FF0000"/>
<rect x="24.5" y="31.5" width="10" height="10" fill="#FF0000"/>
<rect x="8.5" y="25.5" width="10" height="10" fill="#FF0000"/>
<rect x="13.5" y="19.5" width="10" height="10" fill="#FF0000"/>
<rect x="22.5" y="15.5" width="10" height="10" fill="#FF0000"/>
<rect x="29.5" y="8.5" width="10" height="10" fill="#FF0000"/>
<rect x="26.5" y="16.5" width="10" height="10" fill="#FF0000"/>
<rect x="25.5" y="23.5" width="10" height="10" fill="#FF0000"/>
<rect x="16.5" y="23.5" width="10" height="10" fill="#FF0000"/>
<rect x="35.5" y="1.5" width="10" height="10" fill="white"/>
<rect x="15.5" y="31.5" width="10" height="10" fill="#FF0000"/>
<rect x="5.5" y="31.5" width="10" height="10" fill="#FF0000"/>
<path d="M37.5003 36.5H40.5003V46.5H1.5V36.5H5.65137M37.5003 36.5V31.5H35.5003V26.5H36.5003V18.5H39.5003V11.5M37.5003 36.5V41.5H5.65137V36.5M39.5003 11.5H45.5003V1.5H35.5003V8.5M39.5003 11.5H35.5003V8.5M35.5003 8.5H29.5003V15.5H22.5003V19.5H13.5003V25.5H8.50026V31.5H5.65137V36.5" stroke="black" stroke-width="3"/>
</svg>
